<svg width="42" height="42" fill="none" xmlns="http://www.w3.org/2000/svg"><path d="M24 7l12.124 7v14L24 35l-12.124-7V14L24 7z" fill="#FAC08F"/><path fill-rule="evenodd" clip-rule="evenodd" d="M11.876 28v-4.921H7.732l1.26 1.395L7.614 26 4 22l3.614-4 1.378 1.5-1.27 1.42h4.154V14L24 7l12.124 7v14L25 34.423v.077h-.134L24 35l-.866-.5H23v-.077L11.876 28zm2.775-13.293L24 9.31l9.35 5.398L24 19.382l-9.35-4.675zm-.775 1.849L23 21.118v10.995l-9.124-5.268V23.08H18v-2.16h-4.124v-4.365zM25 32.113V21.118l9.124-4.562v10.29L25 32.112z" fill="#F58220"/></svg>