<svg width="32" height="32" viewBox="0 0 32 32" fill="none" xmlns="http://www.w3.org/2000/svg">
<path d="M28.0004 21.4102C28.0004 25.6323 24.6932 29 20.6804 29C16.6675 29 13.3604 25.6323 13.3604 21.4102C13.3604 17.1882 16.6675 13.8204 20.6804 13.8204C24.6932 13.8204 28.0004 17.1882 28.0004 21.4102Z" stroke="#000000" stroke-width="2"/>
<path fill-rule="evenodd" clip-rule="evenodd" d="M29.0004 21.4102C29.0004 26.1227 25.2448 30 20.6804 30C16.0583 30 12.3604 26.1227 12.3604 21.4102C12.3604 16.6383 16.0583 12.8204 20.6804 12.8204C25.2448 12.8204 29.0004 16.6383 29.0004 21.4102ZM25.0715 24.6314C24.7826 25.2876 24.2626 25.7648 23.6848 26.1226C24.147 27.6139 24.147 27.6139 24.3204 28.3895V28.5088C25.6494 27.793 26.7471 26.6596 27.4984 25.2876H27.3828C26.5739 25.1087 26.5739 25.1087 25.0717 24.6314L25.0715 24.6314ZM19.5248 29.3438C19.7559 29.2842 19.7559 29.2842 19.987 29.0456C20.7381 27.9718 20.7381 27.9718 21.6626 26.2419C21.027 26.0033 20.507 25.5261 20.2182 24.8699C18.0226 25.6453 18.0226 25.6453 16.2314 26.1822C15.0181 26.3611 15.0181 26.3611 14.4404 26.2419C15.596 27.8525 17.4448 29.0455 19.5248 29.3437V29.3438ZM13.1692 19.1435C13.8625 19.6803 13.8625 19.6803 15.827 20.6944C17.907 21.6487 17.907 21.6487 20.2181 22.6629C20.507 21.9471 21.0849 21.3506 21.7781 21.0523C20.7959 18.6663 20.7959 18.6663 19.8714 16.5187C18.8314 14.431 18.8314 14.431 18.3692 13.7151C15.8849 14.4905 13.9204 16.5783 13.1692 19.1435L13.1692 19.1435ZM25.3024 14.9084C25.418 15.5646 25.418 15.5646 25.1868 16.8769C24.6668 18.7858 24.6668 18.7858 23.8579 21.112C24.4935 21.3506 25.0135 21.9471 25.2446 22.6032C26.9202 21.6489 26.9202 21.6489 28.0179 20.8137C28.3068 20.5154 28.3068 20.5154 28.3646 20.2768C28.0757 18.0697 26.9202 16.1608 25.3025 14.9082L25.3024 14.9084ZM24.4357 23.677C24.3779 24.5718 23.6268 25.3473 22.7601 25.407C21.8357 25.4667 21.0845 24.7508 21.0845 23.7964C21.0845 22.842 21.8934 22.0069 22.8178 22.0069C23.7421 22.0069 24.4356 22.7823 24.4356 23.6771L24.4357 23.677Z" fill="#000000"/>
<path fill-rule="evenodd" clip-rule="evenodd" d="M4.82 5.87902H19.38V10.9749C19.847 10.908 20.3245 10.8734 20.81 10.8734C20.9406 10.8734 21.0706 10.8759 21.2 10.8809V4H3V11.5161V13.3951V19.0322V20.9112V28.4273H13.5882C13.0458 27.8605 12.5694 27.2301 12.1714 26.5482H4.82V20.9112H10.8147V20.8687C10.8147 20.2414 10.8725 19.6275 10.9831 19.0322H4.82V13.3951H14.1727C15.0758 12.5925 16.1253 11.9511 17.2761 11.5161H4.82V5.87902ZM12.5259 15.2741H8.46V17.1531H11.5281C11.7944 16.4886 12.1299 15.8593 12.5259 15.2741ZM10.895 22.7902H8.46V24.6692H11.3219C11.1217 24.0663 10.9774 23.4379 10.895 22.7902ZM15.74 7.75804H8.46V9.63706H15.74V7.75804Z" fill="#000000"/>
</svg>
