<svg width="33" height="32" xmlns="http://www.w3.org/2000/svg"><path d="M24.198 18.11h5.524v2.21h-5.524v-2.21z"/><path fill-rule="evenodd" clip-rule="evenodd" d="M30.826 17.005h-16.57v11.047h16.57V17.005zm-18.78-2.21V29.98H33V14.796H12.047z"/><path fill-rule="evenodd" clip-rule="evenodd" d="M19.227 20.32a1.657 1.657 0 100 3.313 1.657 1.657 0 000-3.314zm-3.866 1.656a3.866 3.866 0 117.733 0 3.866 3.866 0 01-7.733 0z"/><path fill-rule="evenodd" clip-rule="evenodd" d="M8.531 23.422H12v-1.29H8.531c-.377 0-.685-.288-.685-.644v-.644H9.13l.818-5.69.05-.447v-.448l.136-.394.213-1.484a13.04 13.04 0 014.71-.885h3.054L23 12.84V4.35l-4.89 1.343h-3.054a13.08 13.08 0 01-5.059-1.024C8.949 4.23 7.739 4 6.5 4c-2.083 0-4.008.64-5.282 1.756L1 5.947v5.295l.218.191c.984.862 2.356 1.44 3.89 1.658v7.753h1.37v.644c0 1.067.92 1.934 2.053 1.934zM2.37 10.668c.39.298.855.549 1.37.745V5.777a5.46 5.46 0 00-1.37.744v4.147zm19.262-4.6l-2.739.753v3.547l2.739.753V6.068zm-4.108 4.14V6.981h-2.467c-1.92 0-3.809-.382-5.614-1.135C8.567 5.482 7.55 5.29 6.5 5.29c-.475 0-.942.04-1.392.118v6.375c.45.078.917.118 1.392.118 1.05 0 2.067-.193 2.942-.558a14.512 14.512 0 015.614-1.135h2.467zM8.89 12.89c-.758.197-1.568.3-2.391.3l-.023-.001v6.366h1.456l.958-6.665z"/><path d="M12 26v-1.29H1V26h11z"/><path fill-rule="evenodd" clip-rule="evenodd" d="M1.383 5.944l-.133.116v5.069l.133.116c.94.824 2.264 1.386 3.76 1.599l.215.03v7.72h1.37v.894c0 .914.794 1.684 1.803 1.684h3.219v-.79H8.531c-.501 0-.935-.386-.935-.894v-.894h1.317l.786-5.472.048-.429v-.476l.141-.411.231-1.605.137-.053a13.289 13.289 0 014.8-.902h3.087l4.607 1.266V4.677l-4.607 1.266h-3.087A13.33 13.33 0 019.9 4.899c-1.014-.423-2.191-.649-3.4-.649-2.037 0-3.899.627-5.117 1.694zm-.33-.376C2.383 4.403 4.371 3.75 6.5 3.75c1.27 0 2.512.237 3.593.688a12.83 12.83 0 004.963 1.005h3.02L23.25 4.02v9.147l-5.174-1.422h-3.02c-1.526 0-3.031.275-4.484.817l-.195 1.361-.13.377v.42l-.052.469-.849 5.904h-1.25v.394c0 .204.181.395.435.395h3.719v1.789H8.531c-1.256 0-2.304-.966-2.304-2.184v-.394h-1.37v-7.788c-1.485-.246-2.823-.826-3.804-1.685l.165-.188m3.64-5.7v5.723l-.87-.235V5.968l.87-.235zm-1.37.418v4.887a5.06 5.06 0 01-.869-.496V6.647c.259-.186.55-.352.87-.496zm1.87 5.418V5.62A8.03 8.03 0 016.5 5.539c1.02 0 2.005.188 2.846.539a14.762 14.762 0 005.71 1.154h2.217v2.725h-2.217a14.77 14.77 0 00-5.71 1.154c-.841.351-1.826.54-2.846.54a8.1 8.1 0 01-1.142-.082zM5.066 5.16c.463-.079.945-.12 1.434-.12 1.08 0 2.13.197 3.038.576a14.262 14.262 0 005.518 1.116h2.717v3.725h-2.717c-1.886 0-3.742.375-5.518 1.116-.908.379-1.959.577-3.038.577-.489 0-.97-.042-1.434-.121l-.012-.002-1.393-.376-.011-.005a5.708 5.708 0 01-1.432-.78l-.099-.074V6.398l.099-.075a5.708 5.708 0 011.432-.78l.011-.004 1.393-.377.012-.002zm16.815.58v5.709l-3.239-.89V6.63l3.239-.89zm-2.739 1.271v3.167l2.239.615V6.396l-2.239.615zm-9.95 5.543l-1.042 7.25H6.227v-6.867l.273.002h.001c.802 0 1.59-.1 2.327-.29l.364-.095zm-2.465.883v5.868h.99l.874-6.087a9.86 9.86 0 01-1.864.219zM.75 24.46h11.5v1.789H.75v-1.79zm11 .5H1.25v.789h10.5v-.79z"/></svg>