<svg width="50" height="18" fill="none" xmlns="http://www.w3.org/2000/svg"><path d="M7.308 0c.966 0 1.827.245 2.583.735.77.476 1.372 1.169 1.806 2.079.448.896.672 1.96.672 3.192 0 1.218-.224 2.282-.672 3.192-.434.91-1.036 1.61-1.806 2.1-.756.476-1.617.714-2.583.714-.896 0-1.666-.203-2.31-.609a3.536 3.536 0 01-1.407-1.659v7.707H0V.147h3.591v2.121c.294-.7.763-1.253 1.407-1.659C5.642.203 6.412 0 7.308 0zM6.153 3.15c-.756 0-1.379.259-1.869.777-.476.504-.523 2.079-.523 2.079s.047 1.561.523 2.079c.49.518 1.113.777 1.869.777.77 0 1.386-.252 1.848-.756.476-.504.714-1.204.714-2.1 0-.896-.238-1.596-.714-2.1-.462-.504-1.078-.756-1.848-.756z" fill="#FF7200"/><path d="M18.037 2.352A5.297 5.297 0 0119.86.651a4.96 4.96 0 012.447-.63v3.843h-1.09c-1.009 0-1.795.203-2.358.609-.549.406-.823 1.092-.823 2.058v5.334h-3.805V.147h3.805v2.205zm17.654 3.339c0 .294-.037.616-.11.966h-8.61c.044.882.281 1.519.711 1.911.43.378.98.567 1.647.567.563 0 1.03-.133 1.401-.399s.616-.609.734-1.029h4.027a4.912 4.912 0 01-1.068 2.226c-.549.644-1.246 1.155-2.091 1.533-.845.364-1.787.546-2.825.546-1.217 0-2.3-.238-3.248-.714a5.428 5.428 0 01-2.203-2.1c-.534-.91-.8-1.974-.8-3.192 0-1.232.259-2.296.778-3.192A5.258 5.258 0 0126.259.735C27.208.245 28.29 0 29.507 0c1.23 0 2.313.238 3.248.714.934.476 1.653 1.148 2.158 2.016.519.854.778 1.841.778 2.961zm-3.866-.826c.015-.77-.19-1.064-.65-1.442-.445-.392-1.001-.588-1.668-.588-.698 0-1.276.196-1.736.588-.46.392-.736.686-.796 1.442h4.85zM43.48 0c1.232 0 2.33.245 3.294.735a5.342 5.342 0 012.291 2.079c.564.91.845 1.974.845 3.192 0 1.218-.281 2.282-.845 3.192a5.477 5.477 0 01-2.291 2.1c-.965.476-2.062.714-3.293.714-1.231 0-2.336-.238-3.315-.714a5.625 5.625 0 01-2.314-2.1c-.548-.91-.823-1.974-.823-3.192 0-1.218.275-2.282.823-3.192A5.484 5.484 0 0140.166.735C41.145.245 42.25 0 43.481 0zm0 3.108c-.726 0-1.341.252-1.846.756-.489.49-.734 1.204-.734 2.142s.245 1.652.734 2.142c.505.49 1.12.735 1.847.735.727 0 1.335-.245 1.824-.735.49-.49.734-1.204.734-2.142s-.244-1.652-.734-2.142c-.49-.504-1.097-.756-1.824-.756z" fill="#0049A5"/></svg>