<svg width="40" height="40" fill="none" xmlns="http://www.w3.org/2000/svg"><path d="M30.33 13.584a.42.42 0 00-.072-.224.471.471 0 00-.184-.16l-9.812-4.844a.522.522 0 00-.46 0l-9.813 4.845a.472.472 0 00-.184.16.42.42 0 00-.072.224c-.003.108-.195 10.933 10.017 17.574a.518.518 0 00.563 0c10.21-6.642 10.02-17.466 10.017-17.575zM20.032 30.242c-8.65-5.807-9.282-14.76-9.323-16.38l9.323-4.604 9.323 4.604c-.042 1.62-.674 10.573-9.323 16.38z" fill="#0C0B37"/><path fill-rule="evenodd" clip-rule="evenodd" d="M19.58 7.908a1.022 1.022 0 01.903 0l9.812 4.844c.15.074.283.187.379.33a.92.92 0 01.156.49l-.5.012.5-.015v.002c.006.254.147 11.247-10.245 18.007a1.02 1.02 0 01-1.107 0C9.086 24.82 9.227 13.827 9.233 13.573l.5.013-.5-.016v.003m10.348-5.664l-9.813 4.845 9.813-4.845zm10.28 5.688l.002-.04-9.782-4.832-.05-.024-.048.024-9.783 4.831.009.32c.043 1.673.69 10.838 9.544 16.782l.225.151.053.037.054-.036.225-.152c8.854-5.944 9.501-15.109 9.544-16.782l.008-.277-.032.001v-.003h.032zm-.03.042V13.6c0 .017.006.03.012.04.004.006.008.01.01.01l-.023-.011zm-9.79-4.833s-.004-.002-.01-.002a.023.023 0 00-.009.002l-9.79 4.834v-.038a.08.08 0 01-.011.038.036.036 0 01-.01.01s0 .001 0 0l.021-.01a7.515 7.515 0 00.011.437c.014.308.045.752.114 1.305a21.703 21.703 0 001.027 4.378c1.182 3.416 3.572 7.604 8.413 10.832l.225.149h.002a.03.03 0 00.015 0h.002l.225-.149c4.84-3.228 7.23-7.417 8.413-10.833.6-1.736.889-3.272 1.027-4.378a16.757 16.757 0 00.121-1.506c.003-.113.004-.192.003-.236l-9.789-4.833zm0 21.935h-.001l.045.069-.044-.07zm-.019 0zm-8.8-16.574c.115 2.164 1.08 10.11 8.81 15.471 7.73-5.362 8.694-13.307 8.81-15.47l-8.81-4.352-8.81 4.351z" fill="#0C0B37"/><path d="M17.987 19a1.013 1.013 0 00-.672-.227 1 1 0 00-.657.262.807.807 0 00-.264.6.811.811 0 00.28.594l1.314 1.534c.177.152.412.237.656.237h.048c.13-.006.256-.035.372-.087a.94.94 0 00.302-.211l4.079-4.3a.796.796 0 00.22-.62.826.826 0 00-.33-.579 1.02 1.02 0 00-.688-.2.99.99 0 00-.646.294l-3.357 3.338-.657-.635z" fill="#0C0B37"/></svg>