<svg width="32" height="32" xmlns="http://www.w3.org/2000/svg"><path fill-rule="evenodd" clip-rule="evenodd" d="M5.5 26a1 1 0 100-2 1 1 0 000 2zm0 2a3 3 0 100-6 3 3 0 000 6z"/><path fill-rule="evenodd" clip-rule="evenodd" d="M4.5 21.287A2.787 2.787 0 017.287 18.5h3.236a7.977 7.977 0 017.977 7.977c0 .841-.682 1.523-1.523 1.523H5.5v-2h10.981a5.977 5.977 0 00-5.958-5.5H7.287a.787.787 0 00-.787.787V23.5h-2v-2.213z"/><path d="M8.5 17h2v2h-2v-2z"/><path fill-rule="evenodd" clip-rule="evenodd" d="M23 6a1 1 0 00-1 1v13a3.5 3.5 0 01-3.5 3.5h-2v-2h2A1.5 1.5 0 0020 20V7a3 3 0 116 0v15.5h.5v.728a3.66 3.66 0 011.11.58c.868.67 1.39 1.735 1.39 3.192v1h-8v-1c0-1.492.59-2.55 1.465-3.202a3.871 3.871 0 011.035-.545V22.5h.5V7a1 1 0 00-1-1zm.184 20h3.653a1.395 1.395 0 00-.448-.608C26.044 25.125 25.541 25 25 25c-.44 0-.959.118-1.34.402a1.476 1.476 0 00-.476.598z"/></svg>