<svg width="40" height="40" fill="none" xmlns="http://www.w3.org/2000/svg"><circle cx="20" cy="20" r="20" fill="#fff"/><path fill-rule="evenodd" clip-rule="evenodd" d="M30.603 9.082l.795 1.835-7.435 3.22 1.443 2.916-2.761.92 8.078 1.555-.378 1.964-8.02-1.543 2.824 3.843 4.018 2.32-1 1.732-4.382-2.53-3.217-4.38-1.082-.416.44 1.712-3.724 7.832-4.898-.471.192-1.991 3.502.337 2.81-5.912-.606-2.363-4.368 2.523-1-1.732 4.3-2.484 1.37-3.263-7.768-2.125.528-1.929 9.966 2.726-1.604 3.822.009.001 3.96-1.319-1.358-2.743 9.366-4.057z" fill="#000"/></svg>