<svg width="40" height="40" fill="none" xmlns="http://www.w3.org/2000/svg"><circle cx="20" cy="20" r="20" fill="#fff"/><path fill-rule="evenodd" clip-rule="evenodd" d="M20 32a8 8 0 008-8c0-4.418-8-17-8-17s-8 12.582-8 17a8 8 0 008 8zm-5.505-7.18l-.948.318v.002l.002.003.002.007.008.023.026.069a8.467 8.467 0 00.474 1.002c.348.627.901 1.456 1.73 2.284.908.908 1.956 1.352 2.756 1.57a6.625 6.625 0 001.31.219l.093.003h.047v-1c0-1 .002-1 .002-1H20h-.043a4.62 4.62 0 01-.886-.15c-.575-.158-1.277-.465-1.868-1.056a8.386 8.386 0 01-1.396-1.841 6.521 6.521 0 01-.352-.738 7.082 7.082 0 01-.011-.03V24.5l-.001-.001.001.004-.949.317z" fill="#0C0B37"/></svg>